<mxfile host="app.diagrams.net" agent="Mozilla/5.0 (Windows NT 10.0; Win64; x64) AppleWebKit/537.36 (KHTML, like Gecko) Chrome/129.0.0.0 Safari/537.36" version="24.7.17">
  <diagram name="Seite-1" id="3izAdX7rU5gKBt8rRxB0">
    <mxGraphModel dx="1434" dy="738" grid="1" gridSize="10" guides="1" tooltips="1" connect="1" arrows="1" fold="1" page="1" pageScale="1" pageWidth="1169" pageHeight="827" math="0" shadow="0">
      <root>
        <mxCell id="0" />
        <mxCell id="1" parent="0" />
        <mxCell id="rFeg9TteXRbul3H2n_lU-35" style="edgeStyle=orthogonalEdgeStyle;rounded=0;orthogonalLoop=1;jettySize=auto;html=1;entryX=0;entryY=0.5;entryDx=0;entryDy=0;endArrow=none;endFill=0;" parent="1" source="rFeg9TteXRbul3H2n_lU-3" target="rFeg9TteXRbul3H2n_lU-34" edge="1">
          <mxGeometry relative="1" as="geometry" />
        </mxCell>
        <mxCell id="rFeg9TteXRbul3H2n_lU-3" value="&lt;b&gt;Laptop&lt;/b&gt;" style="rounded=0;whiteSpace=wrap;html=1;verticalAlign=top;fillColor=#f9f7ed;strokeColor=#36393d;" parent="1" vertex="1">
          <mxGeometry x="160" y="150" width="140" height="110" as="geometry" />
        </mxCell>
        <mxCell id="rFeg9TteXRbul3H2n_lU-2" value="TwinCat" style="rounded=0;whiteSpace=wrap;html=1;fillColor=#fff2cc;strokeColor=#d6b656;" parent="1" vertex="1">
          <mxGeometry x="170" y="190" width="120" height="60" as="geometry" />
        </mxCell>
        <mxCell id="rFeg9TteXRbul3H2n_lU-4" value="&lt;span&gt;Buskoppler&lt;/span&gt;" style="rounded=0;whiteSpace=wrap;html=1;verticalAlign=middle;horizontal=0;fontStyle=0;fillColor=#ffcc99;strokeColor=#36393d;" parent="1" vertex="1">
          <mxGeometry x="520" y="150" width="40" height="110" as="geometry" />
        </mxCell>
        <mxCell id="rFeg9TteXRbul3H2n_lU-43" style="edgeStyle=orthogonalEdgeStyle;rounded=0;orthogonalLoop=1;jettySize=auto;html=1;entryX=0.5;entryY=0;entryDx=0;entryDy=0;endArrow=none;endFill=0;" parent="1" source="rFeg9TteXRbul3H2n_lU-15" target="rFeg9TteXRbul3H2n_lU-42" edge="1">
          <mxGeometry relative="1" as="geometry" />
        </mxCell>
        <mxCell id="Dj8FPKq_8v-sFrND8ujt-1" style="edgeStyle=orthogonalEdgeStyle;rounded=0;orthogonalLoop=1;jettySize=auto;html=1;entryX=0.5;entryY=0;entryDx=0;entryDy=0;endArrow=none;endFill=0;" edge="1" parent="1" source="rFeg9TteXRbul3H2n_lU-15" target="rFeg9TteXRbul3H2n_lU-21">
          <mxGeometry relative="1" as="geometry" />
        </mxCell>
        <mxCell id="rFeg9TteXRbul3H2n_lU-15" value="Roboterkontroller&lt;div&gt;&lt;br&gt;&lt;/div&gt;&lt;div&gt;&lt;span style=&quot;font-weight: normal;&quot;&gt;CB2&lt;/span&gt;&lt;/div&gt;" style="rounded=0;whiteSpace=wrap;html=1;fontStyle=1;verticalAlign=top;fillColor=#cce5ff;strokeColor=#36393d;" parent="1" vertex="1">
          <mxGeometry x="160" y="320" width="120" height="60" as="geometry" />
        </mxCell>
        <mxCell id="rFeg9TteXRbul3H2n_lU-29" style="edgeStyle=orthogonalEdgeStyle;rounded=0;orthogonalLoop=1;jettySize=auto;html=1;entryX=0.5;entryY=0;entryDx=0;entryDy=0;endArrow=none;endFill=0;" parent="1" source="rFeg9TteXRbul3H2n_lU-16" target="rFeg9TteXRbul3H2n_lU-17" edge="1">
          <mxGeometry relative="1" as="geometry" />
        </mxCell>
        <mxCell id="rFeg9TteXRbul3H2n_lU-39" style="edgeStyle=orthogonalEdgeStyle;rounded=0;orthogonalLoop=1;jettySize=auto;html=1;endArrow=none;endFill=0;" parent="1" source="rFeg9TteXRbul3H2n_lU-16" edge="1">
          <mxGeometry relative="1" as="geometry">
            <mxPoint x="500" y="290" as="targetPoint" />
          </mxGeometry>
        </mxCell>
        <mxCell id="rFeg9TteXRbul3H2n_lU-16" value="Verarbeitungsbox&lt;div&gt;&lt;br&gt;&lt;/div&gt;&lt;div&gt;&lt;span style=&quot;font-weight: normal;&quot;&gt;Compute Box&lt;/span&gt;&lt;/div&gt;" style="rounded=0;whiteSpace=wrap;html=1;fontStyle=1;verticalAlign=top;fillColor=#cce5ff;strokeColor=#36393d;" parent="1" vertex="1">
          <mxGeometry x="440" y="320" width="120" height="60" as="geometry" />
        </mxCell>
        <mxCell id="rFeg9TteXRbul3H2n_lU-17" value="Kraftsensor&lt;div&gt;&lt;br&gt;&lt;/div&gt;&lt;div&gt;&lt;span style=&quot;font-weight: normal;&quot;&gt;HEX-E Sensor 2.0&lt;/span&gt;&lt;/div&gt;" style="rounded=0;whiteSpace=wrap;html=1;fontStyle=1;verticalAlign=top;fillColor=#A9C4EB;strokeColor=#36393d;" parent="1" vertex="1">
          <mxGeometry x="440" y="410" width="120" height="60" as="geometry" />
        </mxCell>
        <mxCell id="rFeg9TteXRbul3H2n_lU-40" style="edgeStyle=orthogonalEdgeStyle;rounded=0;orthogonalLoop=1;jettySize=auto;html=1;endArrow=none;endFill=0;entryX=1;entryY=0;entryDx=0;entryDy=0;" parent="1" source="rFeg9TteXRbul3H2n_lU-20" edge="1" target="rFeg9TteXRbul3H2n_lU-41">
          <mxGeometry relative="1" as="geometry">
            <mxPoint x="550" y="290" as="targetPoint" />
            <Array as="points">
              <mxPoint x="639" y="290" />
            </Array>
          </mxGeometry>
        </mxCell>
        <mxCell id="rFeg9TteXRbul3H2n_lU-20" value="Kamera&lt;div&gt;&lt;br&gt;&lt;/div&gt;&lt;div&gt;&lt;span style=&quot;font-weight: normal;&quot;&gt;Manta G125B ASG&lt;/span&gt;&lt;/div&gt;" style="rounded=0;whiteSpace=wrap;html=1;fontStyle=1;verticalAlign=top;fillColor=#A9C4EB;strokeColor=#36393d;" parent="1" vertex="1">
          <mxGeometry x="579" y="320" width="120" height="60" as="geometry" />
        </mxCell>
        <mxCell id="rFeg9TteXRbul3H2n_lU-21" value="Greifer&lt;div&gt;&lt;br&gt;&lt;/div&gt;&lt;div&gt;&lt;span data-teams=&quot;true&quot;&gt;&lt;span style=&quot;font-weight: normal;&quot; dir=&quot;ltr&quot; class=&quot;ui-provider a b c d e f g h i j k l m n o p q r s t u v w x y z ab ac ae af ag ah ai aj ak&quot;&gt;Robotiq 2F-85&lt;/span&gt;&lt;/span&gt;&lt;br&gt;&lt;/div&gt;" style="rounded=0;whiteSpace=wrap;html=1;fontStyle=1;verticalAlign=top;fillColor=#A9C4EB;strokeColor=#36393d;" parent="1" vertex="1">
          <mxGeometry x="300" y="410" width="120" height="60" as="geometry" />
        </mxCell>
        <mxCell id="rFeg9TteXRbul3H2n_lU-24" value="" style="group;fillColor=#ffcc99;strokeColor=#36393d;" parent="1" vertex="1" connectable="0">
          <mxGeometry x="555" y="150" width="140" height="110" as="geometry" />
        </mxCell>
        <mxCell id="rFeg9TteXRbul3H2n_lU-5" value="" style="rounded=0;whiteSpace=wrap;html=1;verticalAlign=middle;horizontal=0;fontStyle=0;fillColor=#ffcc99;strokeColor=#36393d;" parent="rFeg9TteXRbul3H2n_lU-24" vertex="1">
          <mxGeometry width="20" height="110" as="geometry" />
        </mxCell>
        <mxCell id="rFeg9TteXRbul3H2n_lU-7" value="" style="rounded=0;whiteSpace=wrap;html=1;verticalAlign=middle;horizontal=0;fontStyle=0;fillColor=#ffcc99;strokeColor=#36393d;" parent="rFeg9TteXRbul3H2n_lU-24" vertex="1">
          <mxGeometry x="20" width="20" height="110" as="geometry" />
        </mxCell>
        <mxCell id="rFeg9TteXRbul3H2n_lU-8" value="" style="rounded=0;whiteSpace=wrap;html=1;verticalAlign=middle;horizontal=0;fontStyle=0;fillColor=#ffcc99;strokeColor=#36393d;" parent="rFeg9TteXRbul3H2n_lU-24" vertex="1">
          <mxGeometry x="40" width="20" height="110" as="geometry" />
        </mxCell>
        <mxCell id="rFeg9TteXRbul3H2n_lU-9" value="" style="rounded=0;whiteSpace=wrap;html=1;verticalAlign=middle;horizontal=0;fontStyle=0;fillColor=#ffcc99;strokeColor=#36393d;" parent="rFeg9TteXRbul3H2n_lU-24" vertex="1">
          <mxGeometry x="60" width="20" height="110" as="geometry" />
        </mxCell>
        <mxCell id="rFeg9TteXRbul3H2n_lU-10" value="" style="rounded=0;whiteSpace=wrap;html=1;verticalAlign=middle;horizontal=0;fontStyle=0;fillColor=#ffcc99;strokeColor=#36393d;" parent="rFeg9TteXRbul3H2n_lU-24" vertex="1">
          <mxGeometry x="80" width="20" height="110" as="geometry" />
        </mxCell>
        <mxCell id="rFeg9TteXRbul3H2n_lU-12" value="" style="rounded=0;whiteSpace=wrap;html=1;verticalAlign=middle;horizontal=0;fontStyle=0;fillColor=#ffcc99;strokeColor=#36393d;" parent="rFeg9TteXRbul3H2n_lU-24" vertex="1">
          <mxGeometry x="100" width="20" height="110" as="geometry" />
        </mxCell>
        <mxCell id="rFeg9TteXRbul3H2n_lU-13" value="" style="rounded=0;whiteSpace=wrap;html=1;verticalAlign=middle;horizontal=0;fontStyle=0;fillColor=#ffcc99;strokeColor=#36393d;" parent="rFeg9TteXRbul3H2n_lU-24" vertex="1">
          <mxGeometry x="120" width="20" height="110" as="geometry" />
        </mxCell>
        <mxCell id="rFeg9TteXRbul3H2n_lU-14" value="&lt;span&gt;Beckhoff-Karten&lt;/span&gt;" style="rounded=0;whiteSpace=wrap;html=1;verticalAlign=middle;horizontal=0;fontStyle=0;rotation=90;strokeColor=none;fillColor=#ffcc99;" parent="rFeg9TteXRbul3H2n_lU-24" vertex="1">
          <mxGeometry x="50" width="40" height="110" as="geometry" />
        </mxCell>
        <mxCell id="rFeg9TteXRbul3H2n_lU-31" value="Ethernet" style="text;html=1;align=center;verticalAlign=middle;whiteSpace=wrap;rounded=0;" parent="1" vertex="1">
          <mxGeometry x="315" y="180" width="60" height="30" as="geometry" />
        </mxCell>
        <mxCell id="rFeg9TteXRbul3H2n_lU-32" value="Ethernet" style="text;html=1;align=center;verticalAlign=middle;whiteSpace=wrap;rounded=0;" parent="1" vertex="1">
          <mxGeometry x="160" y="290" width="60" height="30" as="geometry" />
        </mxCell>
        <mxCell id="rFeg9TteXRbul3H2n_lU-33" value="Ethernet&lt;div style=&quot;line-height: 70%;&quot;&gt;&lt;font style=&quot;font-size: 8px;&quot;&gt;&lt;i&gt;(Crossover)&lt;/i&gt;&lt;/font&gt;&lt;/div&gt;" style="text;html=1;align=center;verticalAlign=middle;whiteSpace=wrap;rounded=0;" parent="1" vertex="1">
          <mxGeometry x="579" y="290" width="60" height="30" as="geometry" />
        </mxCell>
        <mxCell id="rFeg9TteXRbul3H2n_lU-36" style="edgeStyle=orthogonalEdgeStyle;rounded=0;orthogonalLoop=1;jettySize=auto;html=1;entryX=0;entryY=0.5;entryDx=0;entryDy=0;endArrow=none;endFill=0;" parent="1" source="rFeg9TteXRbul3H2n_lU-34" target="rFeg9TteXRbul3H2n_lU-4" edge="1">
          <mxGeometry relative="1" as="geometry" />
        </mxCell>
        <mxCell id="rFeg9TteXRbul3H2n_lU-38" style="edgeStyle=orthogonalEdgeStyle;rounded=0;orthogonalLoop=1;jettySize=auto;html=1;endArrow=none;endFill=0;" parent="1" source="rFeg9TteXRbul3H2n_lU-34" target="rFeg9TteXRbul3H2n_lU-15" edge="1">
          <mxGeometry relative="1" as="geometry">
            <Array as="points">
              <mxPoint x="410" y="290" />
              <mxPoint x="220" y="290" />
            </Array>
          </mxGeometry>
        </mxCell>
        <mxCell id="Dj8FPKq_8v-sFrND8ujt-2" style="edgeStyle=orthogonalEdgeStyle;rounded=0;orthogonalLoop=1;jettySize=auto;html=1;entryX=1;entryY=0;entryDx=0;entryDy=0;endArrow=none;endFill=0;" edge="1" parent="1" source="rFeg9TteXRbul3H2n_lU-34" target="rFeg9TteXRbul3H2n_lU-41">
          <mxGeometry relative="1" as="geometry">
            <Array as="points">
              <mxPoint x="410" y="290" />
            </Array>
          </mxGeometry>
        </mxCell>
        <mxCell id="rFeg9TteXRbul3H2n_lU-34" value="&lt;span&gt;Switch&lt;/span&gt;" style="rounded=0;whiteSpace=wrap;html=1;verticalAlign=middle;horizontal=0;fontStyle=0;fillColor=#ffff88;strokeColor=#36393d;" parent="1" vertex="1">
          <mxGeometry x="390" y="150" width="40" height="110" as="geometry" />
        </mxCell>
        <mxCell id="rFeg9TteXRbul3H2n_lU-37" value="Ethernet" style="text;html=1;align=center;verticalAlign=middle;whiteSpace=wrap;rounded=0;" parent="1" vertex="1">
          <mxGeometry x="450" y="180" width="60" height="30" as="geometry" />
        </mxCell>
        <mxCell id="rFeg9TteXRbul3H2n_lU-41" value="Ethernet" style="text;html=1;align=center;verticalAlign=middle;whiteSpace=wrap;rounded=0;" parent="1" vertex="1">
          <mxGeometry x="440" y="290" width="60" height="30" as="geometry" />
        </mxCell>
        <mxCell id="rFeg9TteXRbul3H2n_lU-42" value="&lt;div&gt;Roboter&lt;/div&gt;&lt;div&gt;&lt;br&gt;&lt;/div&gt;&lt;div&gt;&lt;span style=&quot;font-weight: normal;&quot;&gt;UR5&lt;/span&gt;&lt;/div&gt;" style="rounded=0;whiteSpace=wrap;html=1;fontStyle=1;verticalAlign=top;fillColor=#A9C4EB;strokeColor=#36393d;" parent="1" vertex="1">
          <mxGeometry x="160" y="410" width="120" height="60" as="geometry" />
        </mxCell>
        <mxCell id="rFeg9TteXRbul3H2n_lU-44" value="Kommunikationsschnittstellen" style="text;html=1;align=left;verticalAlign=middle;whiteSpace=wrap;rounded=0;fontSize=14;fontStyle=5" parent="1" vertex="1">
          <mxGeometry x="160" y="90" width="200" height="30" as="geometry" />
        </mxCell>
      </root>
    </mxGraphModel>
  </diagram>
</mxfile>
